<svg width="36" height="49" viewBox="0 0 36 49" fill="none" xmlns="http://www.w3.org/2000/svg">
<path d="M35.5 18.375V19.048C35.5 23.1268 34.1279 27.087 31.6044 30.2915L19.1785 46.0704C18.5779 46.833 17.4221 46.833 16.8215 46.0704L4.39563 30.2915C1.87213 27.087 0.5 23.1268 0.5 19.048V18.375C0.5 8.71001 8.33502 0.875 18 0.875C27.665 0.875 35.5 8.71002 35.5 18.375Z" fill="#528FCA" stroke="white"/>
<rect x="6" y="6.21667" width="24" height="24" rx="12" fill="white"/>
<g clip-path="url(#clip0_296_21828)">
<path d="M25.7026 25.094C25.5778 25.0428 25.4567 24.9792 25.3415 24.9024C24.3276 24.2259 22.9844 24.2259 21.9705 24.9024C21.2785 25.3632 20.3852 25.3632 19.6931 24.9024C18.6792 24.2259 17.3673 24.2259 16.3534 24.9024C15.6613 25.3632 14.7681 25.3632 14.076 24.9024C13.0621 24.2259 11.7189 24.2259 10.705 24.9024C10.5794 24.9861 10.4454 25.0556 10.3069 25.1091C10.06 25.2046 9.93707 25.4816 10.0321 25.7285C10.1277 25.9753 10.406 26.0978 10.6515 26.0032C10.8559 25.9242 11.0524 25.8222 11.2362 25.6997C11.9283 25.2389 12.8527 25.2389 13.5448 25.6997C14.5587 26.3763 15.8707 26.3763 16.8846 25.6997C17.5767 25.2389 18.4699 25.2389 19.162 25.6997C20.1759 26.3762 21.4878 26.3763 22.5017 25.6997C23.1938 25.2389 24.1183 25.2385 24.8104 25.7002C24.9795 25.8122 25.1564 25.9059 25.3388 25.9808C25.5815 26.0787 25.8631 25.9639 25.9641 25.7193C26.0642 25.4748 25.9476 25.1945 25.7026 25.094Z" fill="#172038"/>
<path d="M25.7026 23.1904C25.5778 23.1392 25.4567 23.0756 25.3415 22.9988C24.691 22.5648 23.8874 22.4129 23.149 22.5357V21.4605H23.6171C23.8758 21.4605 24.0852 21.2511 24.0852 20.9924V19.12C24.0852 18.8613 23.8758 18.6519 23.6171 18.6519H23.149C23.149 16.9823 23.149 15.8456 23.149 14.1757L24.3211 14.8455C24.5409 14.9718 24.8296 14.899 24.9597 14.6713C25.0881 14.4469 25.0099 14.1607 24.7855 14.0327L18.2322 10.2879C18.0886 10.2056 17.9113 10.2056 17.7677 10.2879L11.2144 14.0327C10.9899 14.1607 10.9118 14.4468 11.0402 14.6713C11.1682 14.8948 11.4544 14.9739 11.6788 14.8454L12.8509 14.1756C12.8509 15.8457 12.8509 16.982 12.8509 18.6519H12.3828C12.1241 18.6519 11.9147 18.8613 11.9147 19.12V20.9923C11.9147 21.2511 12.1241 21.4604 12.3828 21.4604H12.8509V22.5253C12.1268 22.4166 11.3416 22.574 10.705 22.9988C10.5794 23.0824 10.4454 23.1519 10.3069 23.2054C10.06 23.301 9.93707 23.5779 10.0321 23.8248C10.1277 24.0717 10.406 24.1946 10.6515 24.0996C10.8559 24.0205 11.0524 23.9185 11.2362 23.796C11.9283 23.3353 12.8527 23.3353 13.5448 23.796C14.5587 24.4726 15.8707 24.4726 16.8846 23.796C17.5767 23.3353 18.4699 23.3353 19.162 23.796C20.1759 24.4726 21.4878 24.4726 22.5017 23.796C23.1938 23.3353 24.1183 23.3348 24.8104 23.7965C24.9795 23.9085 25.1564 24.0022 25.3388 24.0772C25.5815 24.1759 25.8631 24.0603 25.9641 23.8157C26.0642 23.5712 25.9476 23.2909 25.7026 23.1904ZM19.4042 16.8107V15.8745H22.2128V16.8107H19.4042ZM21.2766 19.6193V20.5555H20.3404V19.6193H21.2766ZM20.3404 12.6019L21.1525 13.0659H20.3404V12.6019ZM18.468 11.5319L19.4042 12.0669V13.0659H18.468V11.5319ZM19.4042 19.6193V20.5555H18.468V19.6193H18.9361H19.4042ZM18.468 15.8745V18.6831H17.5319V15.8745H18.468ZM16.5956 12.0669L17.5318 11.5319V13.0659H16.5956V12.0669ZM17.5319 19.6193V20.5555H16.5957V19.6193H17.0638H17.5319ZM15.6594 12.6019V13.0659H14.8474L15.6594 12.6019ZM13.7871 15.8745H16.5957V16.8107H13.7871V15.8745ZM15.6594 19.6193V20.5555H14.7233V19.6193H15.6594ZM12.8509 20.5555V19.6193H13.319H13.7871V20.5555H12.8509ZM21.9705 23.03C21.2784 23.4908 20.3852 23.4908 19.6931 23.03C18.6792 22.3535 17.3673 22.3535 16.3534 23.03C15.6613 23.4908 14.768 23.4908 14.0759 23.03C13.9828 22.9679 13.8848 22.9176 13.787 22.8668V21.4917H22.2128V22.8932H22.2128C22.1314 22.9373 22.0486 22.9779 21.9705 23.03ZM23.149 20.5555H22.2128V19.6193H22.6809H23.149V20.5555H23.149Z" fill="#172038"/>
</g>
<defs>
<clipPath id="clip0_296_21828">
<rect width="16" height="16" fill="white" transform="translate(10 10.2167)"/>
</clipPath>
</defs>
</svg>
