<svg width="32" height="42" viewBox="0 0 32 42" fill="none" xmlns="http://www.w3.org/2000/svg">
<path d="M31.5 16V16.2869C31.5 19.8716 30.28 23.3496 28.0406 26.1489L17.1713 39.7355C16.5708 40.4861 15.4292 40.4861 14.8287 39.7355L3.9594 26.1489C1.72002 23.3496 0.5 19.8716 0.5 16.2869V16C0.5 7.43959 7.43959 0.5 16 0.5C24.5604 0.5 31.5 7.43959 31.5 16Z" fill="#528FCA" stroke="white"/>
<rect x="4" y="4" width="24" height="24" rx="12" fill="white"/>
<g clip-path="url(#clip0_296_21721)">
<path d="M23.7026 22.8773C23.5778 22.8261 23.4567 22.7625 23.3415 22.6858C22.3276 22.0092 20.9844 22.0092 19.9705 22.6858C19.2785 23.1465 18.3852 23.1465 17.6931 22.6858C16.6792 22.0092 15.3673 22.0092 14.3534 22.6858C13.6613 23.1465 12.7681 23.1465 12.076 22.6858C11.0621 22.0092 9.71892 22.0092 8.70504 22.6858C8.57936 22.7694 8.44542 22.8389 8.30689 22.8924C8.06004 22.988 7.93707 23.2649 8.03214 23.5118C8.1277 23.7586 8.40604 23.8812 8.65154 23.7865C8.85589 23.7075 9.05245 23.6055 9.2362 23.483C9.92829 23.0222 10.8527 23.0222 11.5448 23.483C12.5587 24.1596 13.8707 24.1596 14.8846 23.483C15.5767 23.0222 16.4699 23.0222 17.162 23.483C18.1759 24.1595 19.4878 24.1596 20.5017 23.483C21.1938 23.0222 22.1183 23.0218 22.8104 23.4835C22.9795 23.5955 23.1564 23.6892 23.3388 23.7641C23.5815 23.862 23.8631 23.7472 23.9641 23.5027C24.0642 23.2581 23.9476 22.9778 23.7026 22.8773Z" fill="#172038"/>
<path d="M23.7026 20.9737C23.5778 20.9225 23.4567 20.859 23.3415 20.7822C22.691 20.3482 21.8874 20.1962 21.149 20.319V19.2438H21.6171C21.8758 19.2438 22.0852 19.0345 22.0852 18.7757V16.9034C22.0852 16.6446 21.8758 16.4353 21.6171 16.4353H21.149C21.149 14.7656 21.149 13.6289 21.149 11.959L22.3211 12.6288C22.5409 12.7552 22.8296 12.6824 22.9597 12.4546C23.0881 12.2302 23.0099 11.944 22.7855 11.816L16.2322 8.07123C16.0886 7.98895 15.9113 7.98895 15.7677 8.07123L9.21439 11.816C8.98995 11.944 8.91179 12.2301 9.04023 12.4546C9.16823 12.6781 9.45439 12.7572 9.67882 12.6287L10.8509 11.9589C10.8509 13.629 10.8509 14.7653 10.8509 16.4352H10.3828C10.1241 16.4352 9.91473 16.6446 9.91473 16.9033V18.7757C9.91473 19.0344 10.1241 19.2438 10.3828 19.2438H10.8509V20.3086C10.1268 20.2 9.34164 20.3573 8.70504 20.7821C8.57936 20.8658 8.44542 20.9352 8.30689 20.9887C8.06004 21.0843 7.93707 21.3613 8.03214 21.6081C8.1277 21.855 8.40604 21.978 8.65154 21.8829C8.85589 21.8038 9.05245 21.7019 9.2362 21.5794C9.92829 21.1186 10.8527 21.1186 11.5448 21.5794C12.5587 22.2559 13.8707 22.2559 14.8846 21.5794C15.5767 21.1186 16.4699 21.1186 17.162 21.5794C18.1759 22.2559 19.4878 22.2559 20.5017 21.5794C21.1938 21.1186 22.1183 21.1181 22.8104 21.5798C22.9795 21.6918 23.1564 21.7855 23.3388 21.8605C23.5815 21.9592 23.8631 21.8436 23.9641 21.599C24.0642 21.3545 23.9476 21.0743 23.7026 20.9737ZM17.4042 14.594V13.6579H20.2128V14.594H17.4042ZM19.2766 17.4026V18.3388H18.3404V17.4026H19.2766ZM18.3404 10.3852L19.1525 10.8493H18.3404V10.3852ZM16.468 9.31523L17.4042 9.85023V10.8493H16.468V9.31523ZM17.4042 17.4026V18.3388H16.468V17.4026H16.9361H17.4042ZM16.468 13.6579V16.4665H15.5319V13.6579H16.468ZM14.5956 9.85023L15.5318 9.31523V10.8493H14.5956V9.85023ZM15.5319 17.4026V18.3388H14.5957V17.4026H15.0638H15.5319ZM13.6594 10.3852V10.8493H12.8474L13.6594 10.3852ZM11.7871 13.6579H14.5957V14.594H11.7871V13.6579ZM13.6594 17.4026V18.3388H12.7233V17.4026H13.6594ZM10.8509 18.3388V17.4026H11.319H11.7871V18.3388H10.8509ZM19.9705 20.8134C19.2784 21.2741 18.3852 21.2741 17.6931 20.8134C16.6792 20.1368 15.3673 20.1368 14.3534 20.8134C13.6613 21.2741 12.768 21.2741 12.0759 20.8134C11.9828 20.7512 11.8848 20.7009 11.787 20.6502V19.275H20.2128V20.6765H20.2128C20.1314 20.7206 20.0486 20.7613 19.9705 20.8134ZM21.149 18.3388H20.2128V17.4026H20.6809H21.149V18.3388H21.149Z" fill="#172038"/>
</g>
<defs>
<clipPath id="clip0_296_21721">
<rect width="16" height="16" fill="white" transform="translate(8 8)"/>
</clipPath>
</defs>
</svg>
