<svg width="36" height="49" viewBox="0 0 36 49" fill="none" xmlns="http://www.w3.org/2000/svg">
<path d="M35.5 18.875V19.548C35.5 23.6268 34.1279 27.587 31.6044 30.7915L19.1785 46.5704C18.5779 47.333 17.4221 47.333 16.8215 46.5704L4.39563 30.7915C1.87213 27.587 0.5 23.6268 0.5 19.548V18.875C0.5 9.21001 8.33502 1.375 18 1.375C27.665 1.375 35.5 9.21002 35.5 18.875Z" fill="#1AACFF" stroke="white"/>
<rect x="6" y="6.71667" width="24" height="24" rx="12" fill="white"/>
<g clip-path="url(#clip0_296_21763)">
<path d="M25.7026 25.594C25.5778 25.5428 25.4567 25.4792 25.3415 25.4024C24.3276 24.7259 22.9844 24.7259 21.9705 25.4024C21.2785 25.8632 20.3852 25.8632 19.6931 25.4024C18.6792 24.7259 17.3673 24.7259 16.3534 25.4024C15.6613 25.8632 14.7681 25.8632 14.076 25.4024C13.0621 24.7259 11.7189 24.7259 10.705 25.4024C10.5794 25.4861 10.4454 25.5556 10.3069 25.6091C10.06 25.7046 9.93707 25.9816 10.0321 26.2285C10.1277 26.4753 10.406 26.5978 10.6515 26.5032C10.8559 26.4242 11.0524 26.3222 11.2362 26.1997C11.9283 25.7389 12.8527 25.7389 13.5448 26.1997C14.5587 26.8763 15.8707 26.8763 16.8846 26.1997C17.5767 25.7389 18.4699 25.7389 19.162 26.1997C20.1759 26.8762 21.4878 26.8763 22.5017 26.1997C23.1938 25.7389 24.1183 25.7385 24.8104 26.2002C24.9795 26.3122 25.1564 26.4059 25.3388 26.4808C25.5815 26.5787 25.8631 26.4639 25.9641 26.2193C26.0642 25.9748 25.9476 25.6945 25.7026 25.594Z" fill="#172038"/>
<path d="M25.7026 23.6904C25.5778 23.6392 25.4567 23.5756 25.3415 23.4988C24.691 23.0648 23.8874 22.9129 23.149 23.0357V21.9605H23.6171C23.8758 21.9605 24.0852 21.7511 24.0852 21.4924V19.62C24.0852 19.3613 23.8758 19.1519 23.6171 19.1519H23.149C23.149 17.4823 23.149 16.3456 23.149 14.6757L24.3211 15.3455C24.5409 15.4718 24.8296 15.399 24.9597 15.1713C25.0881 14.9469 25.0099 14.6607 24.7855 14.5327L18.2322 10.7879C18.0886 10.7056 17.9113 10.7056 17.7677 10.7879L11.2144 14.5327C10.9899 14.6607 10.9118 14.9468 11.0402 15.1713C11.1682 15.3948 11.4544 15.4739 11.6788 15.3454L12.8509 14.6756C12.8509 16.3457 12.8509 17.482 12.8509 19.1519H12.3828C12.1241 19.1519 11.9147 19.3613 11.9147 19.62V21.4923C11.9147 21.7511 12.1241 21.9604 12.3828 21.9604H12.8509V23.0253C12.1268 22.9166 11.3416 23.074 10.705 23.4988C10.5794 23.5824 10.4454 23.6519 10.3069 23.7054C10.06 23.801 9.93707 24.0779 10.0321 24.3248C10.1277 24.5717 10.406 24.6946 10.6515 24.5996C10.8559 24.5205 11.0524 24.4185 11.2362 24.296C11.9283 23.8353 12.8527 23.8353 13.5448 24.296C14.5587 24.9726 15.8707 24.9726 16.8846 24.296C17.5767 23.8353 18.4699 23.8353 19.162 24.296C20.1759 24.9726 21.4878 24.9726 22.5017 24.296C23.1938 23.8353 24.1183 23.8348 24.8104 24.2965C24.9795 24.4085 25.1564 24.5022 25.3388 24.5772C25.5815 24.6759 25.8631 24.5603 25.9641 24.3157C26.0642 24.0712 25.9476 23.7909 25.7026 23.6904ZM19.4042 17.3107V16.3745H22.2128V17.3107H19.4042ZM21.2766 20.1193V21.0555H20.3404V20.1193H21.2766ZM20.3404 13.1019L21.1525 13.5659H20.3404V13.1019ZM18.468 12.0319L19.4042 12.5669V13.5659H18.468V12.0319ZM19.4042 20.1193V21.0555H18.468V20.1193H18.9361H19.4042ZM18.468 16.3745V19.1831H17.5319V16.3745H18.468ZM16.5956 12.5669L17.5318 12.0319V13.5659H16.5956V12.5669ZM17.5319 20.1193V21.0555H16.5957V20.1193H17.0638H17.5319ZM15.6594 13.1019V13.5659H14.8474L15.6594 13.1019ZM13.7871 16.3745H16.5957V17.3107H13.7871V16.3745ZM15.6594 20.1193V21.0555H14.7233V20.1193H15.6594ZM12.8509 21.0555V20.1193H13.319H13.7871V21.0555H12.8509ZM21.9705 23.53C21.2784 23.9908 20.3852 23.9908 19.6931 23.53C18.6792 22.8535 17.3673 22.8535 16.3534 23.53C15.6613 23.9908 14.768 23.9908 14.0759 23.53C13.9828 23.4679 13.8848 23.4176 13.787 23.3668V21.9917H22.2128V23.3932H22.2128C22.1314 23.4373 22.0486 23.4779 21.9705 23.53ZM23.149 21.0555H22.2128V20.1193H22.6809H23.149V21.0555H23.149Z" fill="#172038"/>
</g>
<defs>
<clipPath id="clip0_296_21763">
<rect width="16" height="16" fill="white" transform="translate(10 10.7167)"/>
</clipPath>
</defs>
</svg>
