<svg width="36" height="49" viewBox="0 0 36 49" fill="none" xmlns="http://www.w3.org/2000/svg">
<path d="M35.5 18.875V19.548C35.5 23.6268 34.1279 27.587 31.6044 30.7915L19.1785 46.5704C18.5779 47.333 17.4221 47.333 16.8215 46.5704L4.39563 30.7915C1.87213 27.587 0.5 23.6268 0.5 19.548V18.875C0.5 9.21001 8.33502 1.375 18 1.375C27.665 1.375 35.5 9.21002 35.5 18.875Z" fill="#EB15E2" stroke="white"/>
<rect x="6" y="6.71667" width="24" height="24" rx="12" fill="white"/>
<g clip-path="url(#clip0_296_21764)">
<path d="M15.2357 20.1365C15.2243 20.0026 15.3024 19.8783 15.4267 19.8273C15.4275 19.827 15.4281 19.8267 15.4289 19.8264C17.0863 19.1448 17.9975 17.8604 17.9975 16.0138C17.9974 13.6254 16.4764 10.7167 14.2398 10.7167C12.0001 10.7167 10.4824 13.6298 10.4824 16.0138C10.4824 17.8268 11.362 19.0709 12.9542 19.7849C13.1369 19.8668 13.2492 20.0536 13.2321 20.2531C12.93 23.7797 12.7455 25.9501 12.6948 26.5478C12.687 26.6388 12.7588 26.7167 12.8502 26.7167H15.6292C15.7206 26.7167 15.7924 26.6385 15.7846 26.5474L15.2357 20.1365Z" fill="#172038"/>
<path d="M19.8995 11.2178C19.8995 10.9596 19.6899 10.75 19.4317 10.75C19.1735 10.75 18.9639 10.9596 18.9639 11.2178V16.3307H19.8995V11.2178Z" fill="#172038"/>
<path d="M21.7745 11.1845C21.7745 10.9263 21.5649 10.7167 21.3067 10.7167C21.0485 10.7167 20.8389 10.9263 20.8389 11.1845V16.3307H21.7745V11.1845Z" fill="#172038"/>
<path d="M23.6456 11.1845C23.6456 10.9263 23.436 10.7167 23.1778 10.7167C22.9196 10.7167 22.71 10.9263 22.71 11.1845V16.3307H23.6456V11.1845Z" fill="#172038"/>
<path d="M20.9487 19.809C21.1334 19.8881 21.2456 20.0776 21.2284 20.2778C21.1035 21.7354 20.8855 24.2823 20.6959 26.5165C20.6881 26.6075 20.7599 26.6855 20.8513 26.6855H23.6303C23.7217 26.6855 23.7935 26.6072 23.7857 26.5162L23.2515 20.2786C23.2343 20.0783 23.3468 19.889 23.5315 19.8097C24.5452 19.374 25.3152 18.4311 25.4835 17.2664H18.998C19.1631 18.4092 19.9165 19.367 20.9487 19.809Z" fill="#172038"/>
<path d="M25.0489 10.75C24.7906 10.75 24.5811 10.9596 24.5811 11.2178V16.3307H25.5167V11.2178C25.5167 10.9596 25.3071 10.75 25.0489 10.75Z" fill="#172038"/>
</g>
<defs>
<clipPath id="clip0_296_21764">
<rect width="16" height="16" fill="white" transform="translate(10 10.7167)"/>
</clipPath>
</defs>
</svg>
