<svg width="36" height="49" viewBox="0 0 36 49" fill="none" xmlns="http://www.w3.org/2000/svg">
<path d="M35.5 18.375V19.048C35.5 23.1268 34.1279 27.087 31.6044 30.2915L19.1785 46.0704C18.5779 46.833 17.4221 46.833 16.8215 46.0704L4.39563 30.2915C1.87213 27.087 0.5 23.1268 0.5 19.048V18.375C0.5 8.71001 8.33502 0.875 18 0.875C27.665 0.875 35.5 8.71002 35.5 18.375Z" fill="#9D1E98" stroke="white"/>
<rect x="6" y="6.21667" width="24" height="24" rx="12" fill="white"/>
<g clip-path="url(#clip0_296_21829)">
<path d="M15.2357 19.6365C15.2243 19.5026 15.3024 19.3783 15.4267 19.3273C15.4275 19.327 15.4281 19.3267 15.4289 19.3264C17.0863 18.6448 17.9975 17.3604 17.9975 15.5138C17.9974 13.1254 16.4764 10.2167 14.2398 10.2167C12.0001 10.2167 10.4824 13.1298 10.4824 15.5138C10.4824 17.3268 11.362 18.5709 12.9542 19.2849C13.1369 19.3668 13.2492 19.5536 13.2321 19.7531C12.93 23.2797 12.7455 25.4501 12.6948 26.0478C12.687 26.1388 12.7588 26.2167 12.8502 26.2167H15.6292C15.7206 26.2167 15.7924 26.1385 15.7846 26.0474L15.2357 19.6365Z" fill="#172038"/>
<path d="M19.8995 10.7178C19.8995 10.4596 19.6899 10.25 19.4317 10.25C19.1735 10.25 18.9639 10.4596 18.9639 10.7178V15.8307H19.8995V10.7178Z" fill="#172038"/>
<path d="M21.7745 10.6845C21.7745 10.4263 21.5649 10.2167 21.3067 10.2167C21.0485 10.2167 20.8389 10.4263 20.8389 10.6845V15.8307H21.7745V10.6845Z" fill="#172038"/>
<path d="M23.6456 10.6845C23.6456 10.4263 23.436 10.2167 23.1778 10.2167C22.9196 10.2167 22.71 10.4263 22.71 10.6845V15.8307H23.6456V10.6845Z" fill="#172038"/>
<path d="M20.9487 19.309C21.1334 19.3881 21.2456 19.5776 21.2284 19.7778C21.1035 21.2354 20.8855 23.7823 20.6959 26.0165C20.6881 26.1075 20.7599 26.1855 20.8513 26.1855H23.6303C23.7217 26.1855 23.7935 26.1072 23.7857 26.0162L23.2515 19.7786C23.2343 19.5783 23.3468 19.389 23.5315 19.3097C24.5452 18.874 25.3152 17.9311 25.4835 16.7664H18.998C19.1631 17.9092 19.9165 18.867 20.9487 19.309Z" fill="#172038"/>
<path d="M25.0489 10.25C24.7906 10.25 24.5811 10.4596 24.5811 10.7178V15.8307H25.5167V10.7178C25.5167 10.4596 25.3071 10.25 25.0489 10.25Z" fill="#172038"/>
</g>
<defs>
<clipPath id="clip0_296_21829">
<rect width="16" height="16" fill="white" transform="translate(10 10.2167)"/>
</clipPath>
</defs>
</svg>
