<svg width="32" height="42" viewBox="0 0 32 42" fill="none" xmlns="http://www.w3.org/2000/svg">
<path d="M31.5 16V16.2869C31.5 19.8716 30.28 23.3496 28.0406 26.1489L17.1713 39.7355C16.5708 40.4861 15.4292 40.4861 14.8287 39.7355L3.9594 26.1489C1.72002 23.3496 0.5 19.8716 0.5 16.2869V16C0.5 7.43959 7.43959 0.5 16 0.5C24.5604 0.5 31.5 7.43959 31.5 16Z" fill="#9D1E98" stroke="white"/>
<rect x="4" y="4" width="24" height="24" rx="12" fill="white"/>
<g clip-path="url(#clip0_296_21723)">
<path d="M13.2357 17.4199C13.2243 17.2859 13.3024 17.1616 13.4267 17.1106C13.4275 17.1103 13.4281 17.11 13.4289 17.1097C15.0863 16.4281 15.9975 15.1437 15.9975 13.2972C15.9974 10.9087 14.4764 8 12.2398 8C10.0001 8 8.48242 10.9131 8.48242 13.2972C8.48242 15.1101 9.36199 16.3542 10.9542 17.0682C11.1369 17.1501 11.2492 17.337 11.2321 17.5364C10.93 21.063 10.7455 23.2334 10.6948 23.8311C10.687 23.9221 10.7588 24 10.8502 24H13.6292C13.7206 24 13.7924 23.9218 13.7846 23.8307L13.2357 17.4199Z" fill="#172038"/>
<path d="M17.8995 8.50116C17.8995 8.24292 17.6899 8.03333 17.4317 8.03333C17.1735 8.03333 16.9639 8.24292 16.9639 8.50116V13.614H17.8995V8.50116Z" fill="#172038"/>
<path d="M19.7745 8.46784C19.7745 8.20959 19.5649 8 19.3067 8C19.0485 8 18.8389 8.20959 18.8389 8.46784V13.614H19.7745V8.46784Z" fill="#172038"/>
<path d="M21.6456 8.46784C21.6456 8.20959 21.436 8 21.1778 8C20.9196 8 20.71 8.20959 20.71 8.46784V13.614H21.6456V8.46784Z" fill="#172038"/>
<path d="M18.9487 17.0924C19.1334 17.1714 19.2456 17.3609 19.2284 17.5611C19.1035 19.0188 18.8855 21.5657 18.6959 23.7999C18.6881 23.8909 18.7599 23.9688 18.8513 23.9688H21.6303C21.7217 23.9688 21.7935 23.8906 21.7857 23.7995L21.2515 17.5619C21.2343 17.3617 21.3468 17.1723 21.5315 17.093C22.5452 16.6573 23.3152 15.7144 23.4835 14.5497H16.998C17.1631 15.6925 17.9165 16.6503 18.9487 17.0924Z" fill="#172038"/>
<path d="M23.0489 8.03333C22.7906 8.03333 22.5811 8.24292 22.5811 8.50116V13.614H23.5167V8.50116C23.5167 8.24292 23.3071 8.03333 23.0489 8.03333Z" fill="#172038"/>
</g>
<defs>
<clipPath id="clip0_296_21723">
<rect width="16" height="16" fill="white" transform="translate(8 8)"/>
</clipPath>
</defs>
</svg>
