<svg width="36" height="49" viewBox="0 0 36 49" fill="none" xmlns="http://www.w3.org/2000/svg">
<path d="M35.5 18.875V19.548C35.5 23.6268 34.1279 27.587 31.6044 30.7915L19.1785 46.5704C18.5779 47.333 17.4221 47.333 16.8215 46.5704L4.39563 30.7915C1.87213 27.587 0.5 23.6268 0.5 19.548V18.875C0.5 9.21001 8.33502 1.375 18 1.375C27.665 1.375 35.5 9.21002 35.5 18.875Z" fill="#22B540" stroke="white"/>
<rect x="6" y="6.71667" width="24" height="24" rx="12" fill="white"/>
<path d="M22.6294 21.8017C22.0343 21.3719 21.6867 20.9365 21.5653 20.4699C21.1147 18.7283 19.6599 17.457 18.0276 17.457C16.3956 17.457 14.8862 18.7283 14.4357 20.4708C14.3142 20.9356 13.9666 21.3719 13.3714 21.8024C12.6467 22.3273 12.3153 23.1391 12.5063 23.9219C12.7358 24.8637 13.7816 25.7012 15.2121 25.7012C15.8169 25.7012 16.3913 25.5461 16.8723 25.253C17.1918 25.0572 17.6266 24.9534 18.0262 24.9534C18.4255 24.9534 18.8049 25.0565 19.1286 25.2522C19.6111 25.5469 20.1823 25.7027 20.7816 25.7027C22.2112 25.7027 23.2634 24.8694 23.4946 23.9221C23.6856 23.1391 23.3533 22.3264 22.6294 21.8017Z" fill="#172038"/>
<path d="M13.8826 17.457C13.8826 16.5103 13.1341 15.0027 12.2465 15.0027C11.359 15.0027 10.6104 16.5103 10.6104 17.457C10.6104 18.3589 11.3446 19.0931 12.2465 19.0931C13.1484 19.0931 13.8826 18.3589 13.8826 17.457Z" fill="#172038"/>
<path d="M23.7543 15.0027C22.8669 15.0027 22.1182 16.5103 22.1182 17.457C22.1182 18.3589 22.8524 19.0931 23.7543 19.0931C24.6562 19.0931 25.3904 18.3589 25.3904 17.457C25.3904 16.5103 24.642 15.0027 23.7543 15.0027Z" fill="#172038"/>
<path d="M18.8457 14.1846C18.8457 15.0867 19.5799 15.8209 20.4818 15.8209C21.3838 15.8209 22.118 15.0867 22.118 14.1846C22.118 13.2379 21.3695 11.7305 20.4818 11.7305C19.5942 11.7305 18.8457 13.2379 18.8457 14.1846Z" fill="#172038"/>
<path d="M15.5192 15.8209C16.4211 15.8209 17.1553 15.0867 17.1553 14.1846C17.1553 13.2379 16.4066 11.7305 15.5192 11.7305C14.6315 11.7305 13.8828 13.2379 13.8828 14.1846C13.8828 15.0867 14.617 15.8209 15.5192 15.8209Z" fill="#172038"/>
</svg>
