<svg width="32" height="42" viewBox="0 0 32 42" fill="none" xmlns="http://www.w3.org/2000/svg">
<path d="M31.5 16V16.2869C31.5 19.8716 30.28 23.3496 28.0406 26.1489L17.1713 39.7355C16.5708 40.4861 15.4292 40.4861 14.8287 39.7355L3.9594 26.1489C1.72002 23.3496 0.5 19.8716 0.5 16.2869V16C0.5 7.43959 7.43959 0.5 16 0.5C24.5604 0.5 31.5 7.43959 31.5 16Z" fill="#4C9B5C" stroke="white"/>
<rect x="4" y="4" width="24" height="24" rx="12" fill="white"/>
<path d="M20.6294 19.0852C20.0343 18.6553 19.6867 18.2199 19.5653 17.7534C19.1147 16.0118 17.6599 14.7405 16.0276 14.7405C14.3956 14.7405 12.8862 16.0118 12.4357 17.7542C12.3142 18.2191 11.9666 18.6553 11.3714 19.0858C10.6467 19.6107 10.3153 20.4225 10.5063 21.2053C10.7358 22.1471 11.7816 22.9847 13.2121 22.9847C13.8169 22.9847 14.3913 22.8295 14.8723 22.5365C15.1918 22.3406 15.6266 22.2368 16.0262 22.2368C16.4255 22.2368 16.8049 22.34 17.1286 22.5356C17.6111 22.8304 18.1823 22.9862 18.7816 22.9862C20.2112 22.9862 21.2634 22.1529 21.4946 21.2055C21.6856 20.4225 21.3533 19.6099 20.6294 19.0852Z" fill="#172038"/>
<path d="M11.8826 14.7404C11.8826 13.7938 11.1341 12.2861 10.2465 12.2861C9.35905 12.2861 8.61035 13.7938 8.61035 14.7404C8.61035 15.6424 9.34456 16.3766 10.2465 16.3766C11.1484 16.3766 11.8826 15.6424 11.8826 14.7404Z" fill="#172038"/>
<path d="M21.7543 12.2861C20.8669 12.2861 20.1182 13.7938 20.1182 14.7404C20.1182 15.6424 20.8524 16.3766 21.7543 16.3766C22.6562 16.3766 23.3904 15.6424 23.3904 14.7404C23.3904 13.7938 22.642 12.2861 21.7543 12.2861Z" fill="#172038"/>
<path d="M16.8457 11.468C16.8457 12.3702 17.5799 13.1044 18.4818 13.1044C19.3838 13.1044 20.118 12.3702 20.118 11.468C20.118 10.5213 19.3695 9.01392 18.4818 9.01392C17.5942 9.01392 16.8457 10.5213 16.8457 11.468Z" fill="#172038"/>
<path d="M13.5192 13.1044C14.4211 13.1044 15.1553 12.3702 15.1553 11.468C15.1553 10.5213 14.4066 9.01392 13.5192 9.01392C12.6315 9.01392 11.8828 10.5213 11.8828 11.468C11.8828 12.3702 12.617 13.1044 13.5192 13.1044Z" fill="#172038"/>
</svg>
