<svg width="36" height="49" viewBox="0 0 36 49" fill="none" xmlns="http://www.w3.org/2000/svg">
<path d="M35.5 18.375V19.048C35.5 23.1268 34.1279 27.087 31.6044 30.2915L19.1785 46.0704C18.5779 46.833 17.4221 46.833 16.8215 46.0704L4.39563 30.2915C1.87213 27.087 0.5 23.1268 0.5 19.048V18.375C0.5 8.71001 8.33502 0.875 18 0.875C27.665 0.875 35.5 8.71002 35.5 18.375Z" fill="#4C9B5C" stroke="white"/>
<rect x="6" y="6.21667" width="24" height="24" rx="12" fill="white"/>
<path d="M22.6294 21.3017C22.0343 20.8719 21.6867 20.4365 21.5653 19.9699C21.1147 18.2283 19.6599 16.957 18.0276 16.957C16.3956 16.957 14.8862 18.2283 14.4357 19.9708C14.3142 20.4356 13.9666 20.8719 13.3714 21.3024C12.6467 21.8273 12.3153 22.6391 12.5063 23.4219C12.7358 24.3637 13.7816 25.2012 15.2121 25.2012C15.8169 25.2012 16.3913 25.0461 16.8723 24.753C17.1918 24.5572 17.6266 24.4534 18.0262 24.4534C18.4255 24.4534 18.8049 24.5565 19.1286 24.7522C19.6111 25.0469 20.1823 25.2027 20.7816 25.2027C22.2112 25.2027 23.2634 24.3694 23.4946 23.4221C23.6856 22.6391 23.3533 21.8264 22.6294 21.3017Z" fill="#172038"/>
<path d="M13.8826 16.957C13.8826 16.0103 13.1341 14.5027 12.2465 14.5027C11.359 14.5027 10.6104 16.0103 10.6104 16.957C10.6104 17.8589 11.3446 18.5931 12.2465 18.5931C13.1484 18.5931 13.8826 17.8589 13.8826 16.957Z" fill="#172038"/>
<path d="M23.7543 14.5027C22.8669 14.5027 22.1182 16.0103 22.1182 16.957C22.1182 17.8589 22.8524 18.5931 23.7543 18.5931C24.6562 18.5931 25.3904 17.8589 25.3904 16.957C25.3904 16.0103 24.642 14.5027 23.7543 14.5027Z" fill="#172038"/>
<path d="M18.8457 13.6846C18.8457 14.5867 19.5799 15.3209 20.4818 15.3209C21.3838 15.3209 22.118 14.5867 22.118 13.6846C22.118 12.7379 21.3695 11.2305 20.4818 11.2305C19.5942 11.2305 18.8457 12.7379 18.8457 13.6846Z" fill="#172038"/>
<path d="M15.5192 15.3209C16.4211 15.3209 17.1553 14.5867 17.1553 13.6846C17.1553 12.7379 16.4066 11.2305 15.5192 11.2305C14.6315 11.2305 13.8828 12.7379 13.8828 13.6846C13.8828 14.5867 14.617 15.3209 15.5192 15.3209Z" fill="#172038"/>
</svg>
