<svg width="25" height="24" viewBox="0 0 25 24" fill="none" xmlns="http://www.w3.org/2000/svg">
<g clip-path="url(#clip0_301_22366)">
<path d="M20.2026 18.8773C20.0778 18.8261 19.9567 18.7625 19.8415 18.6858C18.8276 18.0092 17.4844 18.0092 16.4705 18.6858C15.7785 19.1465 14.8852 19.1465 14.1931 18.6858C13.1792 18.0092 11.8673 18.0092 10.8534 18.6858C10.1613 19.1465 9.26807 19.1465 8.57598 18.6858C7.56207 18.0092 6.21892 18.0092 5.20504 18.6858C5.07936 18.7694 4.94542 18.8389 4.80689 18.8924C4.56004 18.988 4.43707 19.2649 4.53214 19.5118C4.6277 19.7586 4.90604 19.8812 5.15154 19.7865C5.35589 19.7075 5.55245 19.6055 5.7362 19.483C6.42829 19.0222 7.35273 19.0222 8.04482 19.483C9.05873 20.1596 10.3707 20.1596 11.3846 19.483C12.0767 19.0222 12.9699 19.0222 13.662 19.483C14.6759 20.1595 15.9878 20.1596 17.0017 19.483C17.6938 19.0222 18.6183 19.0218 19.3104 19.4835C19.4795 19.5955 19.6564 19.6892 19.8388 19.7641C20.0815 19.862 20.3631 19.7472 20.4641 19.5027C20.5642 19.2581 20.4476 18.9778 20.2026 18.8773Z" fill="#172038"/>
<path d="M20.2026 16.9737C20.0778 16.9225 19.9567 16.859 19.8415 16.7822C19.191 16.3482 18.3874 16.1962 17.649 16.319V15.2438H18.1171C18.3758 15.2438 18.5852 15.0345 18.5852 14.7757V12.9034C18.5852 12.6446 18.3758 12.4353 18.1171 12.4353H17.649C17.649 10.7656 17.649 9.62889 17.649 7.95898L18.8211 8.6288C19.0409 8.75517 19.3296 8.68236 19.4597 8.45464C19.5881 8.2302 19.5099 7.94404 19.2855 7.81604L12.7322 4.07123C12.5886 3.98895 12.4113 3.98895 12.2677 4.07123L5.71439 7.81598C5.48995 7.94398 5.41179 8.23011 5.54023 8.45458C5.66823 8.67811 5.95439 8.7572 6.17882 8.62873L7.35092 7.95892C7.35092 9.62901 7.35092 10.7653 7.35092 12.4352H6.88282C6.62411 12.4352 6.41473 12.6446 6.41473 12.9033V14.7757C6.41473 15.0344 6.62411 15.2438 6.88282 15.2438H7.35092V16.3086C6.62683 16.2 5.84164 16.3573 5.20504 16.7821C5.07936 16.8658 4.94542 16.9352 4.80689 16.9887C4.56004 17.0843 4.43707 17.3613 4.53214 17.6081C4.6277 17.855 4.90604 17.978 5.15154 17.8829C5.35589 17.8038 5.55245 17.7019 5.7362 17.5794C6.42829 17.1186 7.35273 17.1186 8.04482 17.5794C9.05873 18.2559 10.3707 18.2559 11.3846 17.5794C12.0767 17.1186 12.9699 17.1186 13.662 17.5794C14.6759 18.2559 15.9878 18.2559 17.0017 17.5794C17.6938 17.1186 18.6183 17.1181 19.3104 17.5798C19.4795 17.6918 19.6564 17.7855 19.8388 17.8605C20.0815 17.9592 20.3631 17.8436 20.4641 17.599C20.5642 17.3545 20.4476 17.0743 20.2026 16.9737ZM13.9042 10.594V9.65786H16.7128V10.594H13.9042ZM15.7766 13.4026V14.3388H14.8404V13.4026H15.7766ZM14.8404 6.38523L15.6525 6.84926H14.8404V6.38523ZM12.968 5.31523L13.9042 5.85023V6.84926H12.968V5.31523ZM13.9042 13.4026V14.3388H12.968V13.4026H13.4361H13.9042ZM12.968 9.65786V12.4665H12.0319V9.65786H12.968ZM11.0956 5.85023L12.0318 5.31523V6.84926H11.0956V5.85023ZM12.0319 13.4026V14.3388H11.0957V13.4026H11.5638H12.0319ZM10.1594 6.38523V6.84926H9.34736L10.1594 6.38523ZM8.28707 9.65786H11.0957V10.594H8.28707V9.65786ZM10.1594 13.4026V14.3388H9.22326V13.4026H10.1594ZM7.35089 14.3388V13.4026H7.81898H8.28707V14.3388H7.35089ZM16.4705 16.8134C15.7784 17.2741 14.8852 17.2741 14.1931 16.8134C13.1792 16.1368 11.8673 16.1368 10.8534 16.8134C10.1613 17.2741 9.26804 17.2741 8.57595 16.8134C8.48279 16.7512 8.38476 16.7009 8.28704 16.6502V15.275H16.7128V16.6765H16.7128C16.6314 16.7206 16.5486 16.7613 16.4705 16.8134ZM17.649 14.3388H16.7128V13.4026H17.1809H17.649V14.3388H17.649Z" fill="#172038"/>
</g>
<defs>
<clipPath id="clip0_301_22366">
<rect width="16" height="16" fill="white" transform="translate(4.5 4)"/>
</clipPath>
</defs>
</svg>
