<svg width="25" height="24" viewBox="0 0 25 24" fill="none" xmlns="http://www.w3.org/2000/svg">
<g clip-path="url(#clip0_301_22367)">
<path d="M9.73573 13.4199C9.72425 13.2859 9.80238 13.1616 9.92673 13.1106C9.92745 13.1103 9.92814 13.11 9.92885 13.1097C11.5863 12.4281 12.4975 11.1437 12.4975 9.29715C12.4974 6.90869 10.9764 4 8.73977 4C6.50008 4 4.98242 6.91309 4.98242 9.29715C4.98242 11.1101 5.86199 12.3542 7.45422 13.0682C7.63686 13.1501 7.74917 13.337 7.73211 13.5364C7.42999 17.063 7.24553 19.2334 7.19479 19.8311C7.18702 19.9221 7.25882 20 7.35017 20H10.1292C10.2206 20 10.2924 19.9218 10.2846 19.8307L9.73573 13.4199Z" fill="#172038"/>
<path d="M14.3995 4.50116C14.3995 4.24292 14.1899 4.03333 13.9317 4.03333C13.6735 4.03333 13.4639 4.24292 13.4639 4.50116V9.61399H14.3995V4.50116Z" fill="#172038"/>
<path d="M16.2745 4.46784C16.2745 4.20959 16.0649 4 15.8067 4C15.5485 4 15.3389 4.20959 15.3389 4.46784V9.61404H16.2745V4.46784Z" fill="#172038"/>
<path d="M18.1456 4.46784C18.1456 4.20959 17.936 4 17.6778 4C17.4196 4 17.21 4.20959 17.21 4.46784V9.61404H18.1456V4.46784Z" fill="#172038"/>
<path d="M15.4487 13.0924C15.6334 13.1714 15.7456 13.3609 15.7284 13.5611C15.6035 15.0188 15.3855 17.5657 15.1959 19.7999C15.1881 19.8909 15.2599 19.9688 15.3513 19.9688H18.1303C18.2217 19.9688 18.2935 19.8906 18.2857 19.7995L17.7515 13.5619C17.7343 13.3617 17.8468 13.1723 18.0315 13.093C19.0452 12.6573 19.8152 11.7144 19.9835 10.5497H13.498C13.6631 11.6925 14.4165 12.6503 15.4487 13.0924Z" fill="#172038"/>
<path d="M19.5489 4.03333C19.2906 4.03333 19.0811 4.24292 19.0811 4.50116V9.61399H20.0167V4.50116C20.0167 4.24292 19.8071 4.03333 19.5489 4.03333Z" fill="#172038"/>
</g>
<defs>
<clipPath id="clip0_301_22367">
<rect width="16" height="16" fill="white" transform="translate(4.5 4)"/>
</clipPath>
</defs>
</svg>
