<svg width="25" height="24" viewBox="0 0 25 24" fill="none" xmlns="http://www.w3.org/2000/svg">
<path d="M17.1294 15.0852C16.5343 14.6553 16.1867 14.2199 16.0653 13.7534C15.6147 12.0118 14.1599 10.7405 12.5276 10.7405C10.8956 10.7405 9.38623 12.0118 8.93569 13.7542C8.81421 14.2191 8.46661 14.6553 7.87136 15.0858C7.14674 15.6107 6.81534 16.4225 7.0063 17.2053C7.23583 18.1471 8.28162 18.9847 9.71209 18.9847C10.3169 18.9847 10.8913 18.8295 11.3723 18.5365C11.6918 18.3406 12.1266 18.2368 12.5262 18.2368C12.9255 18.2368 13.3049 18.34 13.6286 18.5356C14.1111 18.8304 14.6823 18.9862 15.2816 18.9862C16.7112 18.9862 17.7634 18.1529 17.9946 17.2055C18.1856 16.4225 17.8533 15.6099 17.1294 15.0852Z" fill="#172038"/>
<path d="M8.38263 10.7404C8.38263 9.79376 7.63414 8.28613 6.74649 8.28613C5.85905 8.28613 5.11035 9.79376 5.11035 10.7404C5.11035 11.6424 5.84456 12.3766 6.74649 12.3766C7.64842 12.3766 8.38263 11.6424 8.38263 10.7404Z" fill="#172038"/>
<path d="M18.2543 8.28613C17.3669 8.28613 16.6182 9.79376 16.6182 10.7404C16.6182 11.6424 17.3524 12.3766 18.2543 12.3766C19.1562 12.3766 19.8904 11.6424 19.8904 10.7404C19.8904 9.79376 19.142 8.28613 18.2543 8.28613Z" fill="#172038"/>
<path d="M13.3457 7.46801C13.3457 8.37016 14.0799 9.10436 14.9818 9.10436C15.8838 9.10436 16.618 8.37016 16.618 7.46801C16.618 6.52133 15.8695 5.01392 14.9818 5.01392C14.0942 5.01392 13.3457 6.52133 13.3457 7.46801Z" fill="#172038"/>
<path d="M10.0192 9.10436C10.9211 9.10436 11.6553 8.37016 11.6553 7.46801C11.6553 6.52133 10.9066 5.01392 10.0192 5.01392C9.13151 5.01392 8.38281 6.52133 8.38281 7.46801C8.38281 8.37016 9.11702 9.10436 10.0192 9.10436Z" fill="#172038"/>
</svg>
