<svg width="16" height="17" viewBox="0 0 16 17" fill="none" xmlns="http://www.w3.org/2000/svg">
<g clip-path="url(#clip0_296_22184)">
<path d="M12.8141 12.5483C12.7361 12.5163 12.6604 12.4766 12.5884 12.4286C11.9547 12.0057 11.1153 12.0057 10.4816 12.4286C10.049 12.7166 9.49077 12.7166 9.05821 12.4286C8.42452 12.0057 7.60456 12.0057 6.97087 12.4286C6.53831 12.7166 5.98005 12.7166 5.54749 12.4286C4.9138 12.0057 4.07432 12.0057 3.44065 12.4286C3.3621 12.4809 3.27839 12.5243 3.1918 12.5577C3.03753 12.6175 2.96067 12.7906 3.02009 12.9449C3.07981 13.0991 3.25378 13.1757 3.40721 13.1166C3.53493 13.0672 3.65778 13.0034 3.77262 12.9269C4.20518 12.6389 4.78296 12.6389 5.21552 12.9269C5.84921 13.3497 6.66917 13.3497 7.30286 12.9269C7.73542 12.6389 8.29368 12.6389 8.72624 12.9269C9.35991 13.3497 10.1799 13.3497 10.8136 12.9269C11.2461 12.6389 11.8239 12.6386 12.2565 12.9272C12.3622 12.9972 12.4728 13.0557 12.5867 13.1026C12.7384 13.1637 12.9145 13.092 12.9776 12.9392C13.0401 12.7863 12.9673 12.6111 12.8141 12.5483Z" fill="white"/>
<path d="M12.8141 11.3586C12.7361 11.3266 12.6604 11.2869 12.5884 11.2389C12.1819 10.9676 11.6796 10.8727 11.2181 10.9494V10.2774H11.5107C11.6724 10.2774 11.8032 10.1466 11.8032 9.98486V8.81463C11.8032 8.65293 11.6724 8.52207 11.5107 8.52207H11.2181C11.2181 7.47852 11.2181 6.76809 11.2181 5.72439L11.9507 6.14303C12.088 6.22201 12.2685 6.1765 12.3498 6.03418C12.4301 5.89391 12.3812 5.71506 12.2409 5.63506L8.14511 3.29455C8.05538 3.24313 7.94454 3.24313 7.85483 3.29455L3.75899 5.63502C3.61872 5.71502 3.56987 5.89385 3.65014 6.03414C3.73014 6.17385 3.90899 6.22328 4.04927 6.14299L4.78182 5.72436C4.78182 6.76816 4.78182 7.47834 4.78182 8.52203H4.48927C4.32757 8.52203 4.19671 8.65289 4.19671 8.81459V9.98482C4.19671 10.1465 4.32757 10.2774 4.48927 10.2774H4.78182V10.9429C4.32927 10.875 3.83852 10.9734 3.44065 11.2388C3.3621 11.2911 3.27839 11.3346 3.1918 11.368C3.03753 11.4277 2.96067 11.6008 3.02009 11.7551C3.07981 11.9094 3.25378 11.9863 3.40721 11.9268C3.53493 11.8774 3.65778 11.8137 3.77262 11.7371C4.20518 11.4491 4.78296 11.4491 5.21552 11.7371C5.84921 12.16 6.66917 12.16 7.30286 11.7371C7.73542 11.4491 8.29368 11.4491 8.72624 11.7371C9.35991 12.16 10.1799 12.16 10.8136 11.7371C11.2461 11.4491 11.8239 11.4489 12.2565 11.7374C12.3622 11.8074 12.4728 11.866 12.5867 11.9128C12.7384 11.9746 12.9145 11.9023 12.9776 11.7494C13.0401 11.5966 12.9673 11.4214 12.8141 11.3586ZM8.87764 7.37131V6.78619H10.633V7.37131H8.87764ZM10.0479 9.12668V9.7118H9.46276V9.12668H10.0479ZM9.46276 4.7408L9.97032 5.03082H9.46276V4.7408ZM8.29253 4.07205L8.87764 4.40643V5.03082H8.29253V4.07205ZM8.87764 9.12668V9.7118H8.29253V9.12668H8.58509H8.87764ZM8.29253 6.78619V8.54156H7.70741V6.78619H8.29253ZM7.12227 4.40643L7.70739 4.07205V5.03082H7.12227V4.40643ZM7.70741 9.12668V9.7118H7.12229V9.12668H7.41485H7.70741ZM6.53716 4.7408V5.03082H6.0296L6.53716 4.7408ZM5.36692 6.78619H7.12229V7.37131H5.36692V6.78619ZM6.53716 9.12668V9.7118H5.95204V9.12668H6.53716ZM4.7818 9.7118V9.12668H5.07436H5.36692V9.7118H4.7818ZM10.4816 11.2584C10.049 11.5464 9.49075 11.5464 9.05819 11.2584C8.4245 10.8355 7.60454 10.8355 6.97085 11.2584C6.53829 11.5464 5.98003 11.5464 5.54747 11.2584C5.48925 11.2195 5.42798 11.1881 5.3669 11.1564V10.2969H10.633V11.1728H10.633C10.5822 11.2004 10.5304 11.2258 10.4816 11.2584ZM11.2181 9.7118H10.633V9.12668H10.9256H11.2181V9.7118H11.2181Z" fill="white"/>
</g>
<defs>
<clipPath id="clip0_296_22184">
<rect width="10" height="10" fill="white" transform="translate(3 3.25)"/>
</clipPath>
</defs>
</svg>
