<svg width="16" height="17" viewBox="0 0 16 17" fill="none" xmlns="http://www.w3.org/2000/svg">
<g clip-path="url(#clip0_296_22195)">
<path d="M6.27258 9.13741C6.2654 9.0537 6.31423 8.97602 6.39195 8.94413C6.3924 8.94396 6.39283 8.94376 6.39328 8.94359C7.42919 8.51758 7.99866 7.71481 7.99866 6.56072C7.99864 5.06793 7.048 3.25 5.6501 3.25C4.2503 3.25 3.30176 5.07068 3.30176 6.56072C3.30176 7.6938 3.85148 8.47138 4.84663 8.91762C4.96078 8.96881 5.03098 9.08559 5.02032 9.21025C4.83149 11.4144 4.7162 12.7709 4.68449 13.1444C4.67963 13.2013 4.72451 13.25 4.7816 13.25H6.51852C6.57564 13.25 6.62051 13.2011 6.61564 13.1442L6.27258 9.13741Z" fill="white"/>
<path d="M9.18733 3.56327C9.18733 3.40187 9.05634 3.27087 8.89494 3.27087C8.73353 3.27087 8.60254 3.40187 8.60254 3.56327V6.75879H9.18733V3.56327Z" fill="white"/>
<path d="M10.3592 3.5424C10.3592 3.38099 10.2282 3.25 10.0668 3.25C9.90541 3.25 9.77441 3.38099 9.77441 3.5424V6.75877H10.3592V3.5424Z" fill="white"/>
<path d="M11.5291 3.5424C11.5291 3.38099 11.3981 3.25 11.2367 3.25C11.0753 3.25 10.9443 3.38099 10.9443 3.5424V6.75877H11.5291V3.5424Z" fill="white"/>
<path d="M9.84319 8.93281C9.9586 8.98222 10.0287 9.10066 10.018 9.22577C9.93995 10.1368 9.80369 11.7286 9.68515 13.125C9.68032 13.1819 9.72519 13.2306 9.78229 13.2306H11.5192C11.5763 13.2306 11.6212 13.1817 11.6163 13.1248L11.2824 9.22628C11.2717 9.10111 11.342 8.98279 11.4574 8.9332C12.091 8.66092 12.5722 8.07158 12.6774 7.34363H8.62402C8.72716 8.05792 9.19804 8.65653 9.84319 8.93281Z" fill="white"/>
<path d="M12.4057 3.27087C12.2443 3.27087 12.1133 3.40187 12.1133 3.56327V6.75879H12.6981V3.56327C12.6981 3.40187 12.5671 3.27087 12.4057 3.27087Z" fill="white"/>
</g>
<defs>
<clipPath id="clip0_296_22195">
<rect width="10" height="10" fill="white" transform="translate(3 3.25)"/>
</clipPath>
</defs>
</svg>
