<svg width="16" height="17" viewBox="0 0 16 17" fill="none" xmlns="http://www.w3.org/2000/svg">
<g clip-path="url(#clip0_296_22176)">
<path d="M10.8924 10.1782C10.5205 9.90954 10.3032 9.63741 10.2273 9.34583C9.94572 8.25731 9.03649 7.46277 8.0163 7.46277C6.99625 7.46277 6.05292 8.25731 5.77133 9.34637C5.6954 9.63688 5.47815 9.90954 5.10612 10.1786C4.65324 10.5067 4.44611 11.014 4.56546 11.5033C4.70892 12.0919 5.36254 12.6154 6.25658 12.6154C6.63461 12.6154 6.99358 12.5184 7.29422 12.3353C7.49389 12.2129 7.76562 12.148 8.01537 12.148C8.26499 12.148 8.50209 12.2125 8.70442 12.3347C9.00599 12.519 9.36297 12.6163 9.73753 12.6163C10.631 12.6163 11.2887 12.0955 11.4332 11.5034C11.5525 11.014 11.3449 10.5061 10.8924 10.1782Z" fill="white"/>
<path d="M5.42603 7.46278C5.42603 6.8711 4.95823 5.92883 4.40344 5.92883C3.8488 5.92883 3.38086 6.8711 3.38086 7.46278C3.38086 8.02649 3.83974 8.48536 4.40344 8.48536C4.96715 8.48536 5.42603 8.02649 5.42603 7.46278Z" fill="white"/>
<path d="M11.5958 5.92883C11.0412 5.92883 10.5732 6.8711 10.5732 7.46278C10.5732 8.02649 11.0321 8.48536 11.5958 8.48536C12.1595 8.48536 12.6184 8.02649 12.6184 7.46278C12.6184 6.8711 12.1506 5.92883 11.5958 5.92883Z" fill="white"/>
<path d="M8.52832 5.41748C8.52832 5.98132 8.9872 6.4402 9.55091 6.4402C10.1146 6.4402 10.5735 5.98132 10.5735 5.41748C10.5735 4.8258 10.1057 3.88367 9.55091 3.88367C8.99612 3.88367 8.52832 4.8258 8.52832 5.41748Z" fill="white"/>
<path d="M6.4485 6.4402C7.01221 6.4402 7.47109 5.98132 7.47109 5.41748C7.47109 4.8258 7.00315 3.88367 6.4485 3.88367C5.89372 3.88367 5.42578 4.8258 5.42578 5.41748C5.42578 5.98132 5.88466 6.4402 6.4485 6.4402Z" fill="white"/>
</g>
<defs>
<clipPath id="clip0_296_22176">
<rect width="10" height="10" fill="white" transform="translate(3 3.25)"/>
</clipPath>
</defs>
</svg>
