<svg width="75" height="97" viewBox="0 0 75 97" fill="none" xmlns="http://www.w3.org/2000/svg">
<g opacity="0.5" filter="url(#filter0_f_301_22407)">
<ellipse cx="37.5" cy="74.8094" rx="20.9951" ry="6.11285" fill="#121A2D"/>
</g>
<path fill-rule="evenodd" clip-rule="evenodd" d="M37.5001 2.92224C21.9348 2.92224 9.20996 15.5405 9.20996 31.1059C9.20996 38.0084 11.7431 44.671 16.3289 49.83L36.0803 72.0504C36.836 72.9005 38.1643 72.9005 38.9199 72.0504L58.6714 49.83C63.2572 44.671 65.7903 38.0084 65.7903 31.1059C65.7903 15.5405 53.0655 2.92224 37.5001 2.92224ZM37.5 53.9221C50.2025 53.9221 60.5 43.6247 60.5 30.9221C60.5 18.2196 50.2025 7.92212 37.5 7.92212C24.7975 7.92212 14.5 18.2196 14.5 30.9221C14.5 43.6247 24.7975 53.9221 37.5 53.9221Z" fill="#528FCA"/>
<path fill-rule="evenodd" clip-rule="evenodd" d="M7.20996 31.1059C7.20996 14.4261 20.84 0.922241 37.5001 0.922241C54.1603 0.922241 67.7903 14.4261 67.7903 31.1059C67.7903 38.4983 65.0775 45.6336 60.1662 51.1588L40.4148 73.3792C38.8635 75.1243 36.1368 75.1243 34.5855 73.3792L14.8341 51.1588C9.92282 45.6336 7.20996 38.4983 7.20996 31.1059ZM37.5 51.9221C49.098 51.9221 58.5 42.5201 58.5 30.9221C58.5 19.3241 49.098 9.92212 37.5 9.92212C25.902 9.92212 16.5 19.3241 16.5 30.9221C16.5 42.5201 25.902 51.9221 37.5 51.9221ZM9.20996 31.1059C9.20996 15.5405 21.9348 2.92224 37.5001 2.92224C53.0655 2.92224 65.7903 15.5405 65.7903 31.1059C65.7903 38.0084 63.2572 44.671 58.6714 49.83L38.9199 72.0504C38.1643 72.9005 36.836 72.9005 36.0803 72.0504L16.3289 49.83C11.7431 44.671 9.20996 38.0084 9.20996 31.1059ZM60.5 30.9221C60.5 43.6247 50.2025 53.9221 37.5 53.9221C24.7975 53.9221 14.5 43.6247 14.5 30.9221C14.5 18.2196 24.7975 7.92212 37.5 7.92212C50.2025 7.92212 60.5 18.2196 60.5 30.9221Z" fill="white"/>
<defs>
<filter id="filter0_f_301_22407" x="0.504883" y="52.6965" width="73.9902" height="44.2257" filterUnits="userSpaceOnUse" color-interpolation-filters="sRGB">
<feFlood flood-opacity="0" result="BackgroundImageFix"/>
<feBlend mode="normal" in="SourceGraphic" in2="BackgroundImageFix" result="shape"/>
<feGaussianBlur stdDeviation="8" result="effect1_foregroundBlur_301_22407"/>
</filter>
</defs>
</svg>
